<?xml version="1.0" encoding="utf-8"?>
<!-- Generator: Adobe Illustrator 16.0.0, SVG Export Plug-In . SVG Version: 6.00 Build 0)  -->
<!DOCTYPE svg PUBLIC "-//W3C//DTD SVG 1.1//EN" "http://www.w3.org/Graphics/SVG/1.1/DTD/svg11.dtd">
<svg version="1.1" id="Layer_1" xmlns="http://www.w3.org/2000/svg" xmlns:xlink="http://www.w3.org/1999/xlink" x="0px" y="0px"
	 width="24px" height="24px" viewBox="0 0 24 24" enable-background="new 0 0 24 24" xml:space="preserve">
<path fill="#8ABA68" d="M22.771,6.627c-0.209,0-0.416,0.052-0.598,0.154l-5.428,3.132v-3c0-1.017-0.834-1.852-1.852-1.852H1.854
	C0.834,5.062,0,5.896,0,6.913v10.174c0,1.019,0.834,1.852,1.854,1.852h13.041c1.018,0,1.852-0.833,1.852-1.852v-3.025l5.428,3.13
	c0.598,0.339,1.33,0.13,1.672-0.445c0.1-0.183,0.154-0.392,0.154-0.599V7.853C24,7.173,23.451,6.627,22.771,6.627z M9.678,9.913
	h-6.26c-0.445,0-0.781-0.341-0.781-0.782V8.607c0-0.443,0.336-0.78,0.781-0.78h6.26c0.443,0,0.785,0.337,0.785,0.78v0.523
	C10.463,9.572,10.121,9.913,9.678,9.913z"/>
</svg>
