<?xml version="1.0" encoding="utf-8"?>
<!-- Generator: Adobe Illustrator 16.0.0, SVG Export Plug-In . SVG Version: 6.00 Build 0)  -->
<!DOCTYPE svg PUBLIC "-//W3C//DTD SVG 1.1//EN" "http://www.w3.org/Graphics/SVG/1.1/DTD/svg11.dtd">
<svg version="1.1" id="Layer_1" xmlns="http://www.w3.org/2000/svg" xmlns:xlink="http://www.w3.org/1999/xlink" x="0px" y="0px"
	 width="24px" height="24px" viewBox="0 0 24 24" enable-background="new 0 0 24 24" xml:space="preserve">
<path fill="#8ABA68" d="M17.145,0c-1.797,0-3.578,0.637-5.146,2.299C10.434,0.637,8.652,0,6.855,0C3.336,0,0,2.825,0,6.856
	c0,1.518,0.355,2.937,0.934,4.287h3.645L7.814,3.59l3.588,10.764l0.996-1.498h1.557C14.249,12.348,14.797,12,15.432,12
	c0.941,0,1.713,0.768,1.713,1.715c0,0.945-0.771,1.715-1.713,1.715c-0.633,0-1.183-0.348-1.477-0.859h-0.639l-2.43,3.65L7.615,8.41
	l-1.908,4.446h-3.9c2.182,3.705,5.883,6.89,8.479,10.085C11.074,23.915,11.543,24,11.999,24c0.458,0,0.927-0.085,1.716-1.059
	C17.608,18.154,24,13.395,24,6.856C24,2.825,20.663,0,17.145,0z"/>
</svg>
