<?xml version="1.0" encoding="utf-8"?>
<!-- Generator: Adobe Illustrator 16.0.0, SVG Export Plug-In . SVG Version: 6.00 Build 0)  -->
<!DOCTYPE svg PUBLIC "-//W3C//DTD SVG 1.1//EN" "http://www.w3.org/Graphics/SVG/1.1/DTD/svg11.dtd">
<svg version="1.1" id="Layer_1" xmlns="http://www.w3.org/2000/svg" xmlns:xlink="http://www.w3.org/1999/xlink" x="0px" y="0px"
	 width="24px" height="24px" viewBox="0 0 24 24" enable-background="new 0 0 24 24" xml:space="preserve">
<g>
	<g>
		<g>
			<g>
				<path fill="#8ABA68" d="M9.345,8.606c1.094,0,1.956,0.86,1.956,1.956c0,1.094-0.862,1.956-1.956,1.956
					c-1.096,0-1.956-0.862-1.956-1.956C7.389,9.506,8.25,8.606,9.345,8.606z"/>
			</g>
			<g>
				<path fill="#8ABA68" d="M22.37,13.536c-0.039,0.156-0.117,0.273-0.236,0.428c-0.155,0.158-0.351,0.315-0.664,0.432l-0.861,0.273
					l0.314,0.822c0.078,0.196,0.039,0.234,0,0.271l-0.156,0.277l0.077,0.391c0.04,0.271-0.039,0.431-0.235,0.586l-0.389,0.353
					l0.117,0.508c0.194,0.745-0.08,1.605-0.667,2.034c-0.234,0.158-0.469,0.274-0.703,0.392c-0.117,0.038-0.235,0.077-0.352,0.155
					c-0.978,0.314-1.995,0.431-2.975,0.55l-0.234,0.036c-1.525,0.197-2.346,1.373-2.894,2.428c-0.236,0.47-0.783,0.663-1.212,0.429
					c-1.565-0.822-4.929-2.582-6.298-3.324c-0.352-0.196-0.548-0.588-0.469-0.938c0.078-0.43,0.118-0.822,0.078-1.213
					c-0.078-0.822-0.313-1.644-0.743-2.543c-0.196-0.429-0.43-0.86-0.626-1.291l-0.039-0.04l-0.039-0.077
					c-0.235-0.51-0.509-1.017-0.744-1.525c-0.82-1.72-1.016-3.521-0.665-5.359C2.5,4.188,4.574,1.838,7.975,0.587l0,0
					c-0.038,0.47-0.077,1.017-0.118,1.447c0,0.117,0,0.234-0.037,0.352C7.78,3.051,7.78,3.716,7.702,4.382
					C7.506,5.791,7.154,7.199,6.606,8.528c-0.625,1.525-0.43,3.599,1.057,4.539c0.468,0.311,1.016,0.469,1.642,0.469
					c0.43,0,0.86-0.079,1.213-0.275c1.368,1.254,2.973,2.113,4.772,2.427c0.117,0.545,0.586,0.977,1.174,0.977h0.194h0.782
					c0.353,0,0.666-0.117,0.899-0.351c0.196-0.235,0.353-0.508,0.353-0.86c0-0.159-0.04-0.314-0.078-0.432
					c-0.158-0.471-0.625-0.782-1.134-0.821h-0.47h-0.509c-0.39,0-0.781,0.195-1.016,0.469c-1.565-0.273-2.934-0.977-4.108-2.033
					c0.509-0.509,0.861-1.214,0.899-1.997v-0.117c0-0.313-0.038-0.626-0.077-0.939c-0.117-0.586-0.351-1.056-0.664-1.563
					c-0.939-1.448-1.056-2.936-1.056-4.578c0-0.509,0-1.175,0.038-1.839c0-0.547,0-1.095,0-1.525c0,0,0.35-0.079,0.819-0.079
					c0.901,0,1.84,0.118,2.778,0.353c1.917,0.43,3.286,1.291,4.461,2.699c1.135,1.408,1.721,3.013,1.681,4.694
					c0,0.234-0.037,0.509-0.037,0.743l-0.042,0.157l0.042,0.236c0.037,0.156,0.117,0.351,0.233,0.509
					c0.038,0.038,0.038,0.077,0.038,0.077l0.626,1.133c0.392,0.703,0.783,1.409,1.174,2.114
					C22.409,12.987,22.448,13.223,22.37,13.536z"/>
			</g>
		</g>
	</g>
</g>
</svg>
