<?xml version="1.0" encoding="utf-8"?>
<!-- Generator: Adobe Illustrator 16.0.0, SVG Export Plug-In . SVG Version: 6.00 Build 0)  -->
<!DOCTYPE svg PUBLIC "-//W3C//DTD SVG 1.1//EN" "http://www.w3.org/Graphics/SVG/1.1/DTD/svg11.dtd">
<svg version="1.1" id="Layer_1" xmlns="http://www.w3.org/2000/svg" xmlns:xlink="http://www.w3.org/1999/xlink" x="0px" y="0px"
	 width="24px" height="24px" viewBox="0 0 24 24" enable-background="new 0 0 24 24" xml:space="preserve">
<g>
	<g>
		<path fill="#8ABA68" d="M23.514,19.199H0.481C0.217,19.199,0,19.412,0,19.679v1.438c0,0.266,0.213,0.48,0.481,0.48h23.036
			c0.266,0,0.482-0.211,0.482-0.48v-1.441C23.994,19.412,23.783,19.199,23.514,19.199z"/>
		<path fill="#8ABA68" d="M1.7,16.798h20.595c0.273,0,0.501-0.23,0.492-0.498c-0.246-5.329-4.352-9.647-9.59-10.228V4.801h1.199
			c0.661,0,1.2-0.539,1.2-1.198c0-0.662-0.539-1.201-1.2-1.201H9.598c-0.662,0-1.201,0.539-1.201,1.201
			c0,0.659,0.539,1.198,1.201,1.198h1.201v1.271c-5.235,0.58-9.344,4.898-9.59,10.228C1.2,16.567,1.425,16.798,1.7,16.798z"/>
	</g>
</g>
</svg>
