<?xml version="1.0" encoding="utf-8"?>
<!-- Generator: Adobe Illustrator 16.0.0, SVG Export Plug-In . SVG Version: 6.00 Build 0)  -->
<!DOCTYPE svg PUBLIC "-//W3C//DTD SVG 1.1//EN" "http://www.w3.org/Graphics/SVG/1.1/DTD/svg11.dtd">
<svg version="1.1" id="Layer_1" xmlns="http://www.w3.org/2000/svg" xmlns:xlink="http://www.w3.org/1999/xlink" x="0px" y="0px"
	 width="24px" height="24px" viewBox="0 0 24 24" enable-background="new 0 0 24 24" xml:space="preserve">
<g>
	<g>
		<g>
			<g>
				<path fill="#8ABA68" d="M19.508,9.204C12.699,6.14,7.077,7.926,4.55,9.085c-0.386,0.921-0.595,1.962-0.595,3.032
					c0,0.686,0.089,1.339,0.238,1.963c1.278,0,3.301,0.299,4.43,1.904c0.982,1.395,1.223,2.854,1.223,3.896
					c0.681,0.176,1.397,0.296,2.137,0.296c0.716,0,1.401-0.088,2.083-0.267c0-1.04,0.237-2.531,1.221-3.894
					c1.16-1.638,3.241-1.904,4.49-1.904c0.148-0.624,0.236-1.28,0.236-1.964C20.045,11.078,19.868,10.096,19.508,9.204z
					 M12.016,13.427c-0.773,0-1.428-0.624-1.428-1.427c0-0.773,0.622-1.427,1.428-1.427c0.773,0,1.426,0.625,1.426,1.427
					C13.412,12.803,12.79,13.427,12.016,13.427z"/>
			</g>
		</g>
		<g>
			<g>
				<path fill="#8ABA68" d="M12.016,0.015C5.383,0.015,0,5.396,0,12c0,6.601,5.383,11.986,11.983,11.986
					C18.616,24.013,24,18.63,24,12C24,5.368,18.616,0.015,12.016,0.015z M12.016,21.158c-5.057,0-9.161-4.104-9.161-9.159
					c0-5.056,4.104-9.161,9.161-9.161c5.053,0,9.158,4.104,9.158,9.161C21.174,17.054,17.069,21.158,12.016,21.158z"/>
			</g>
		</g>
	</g>
</g>
</svg>
