<?xml version="1.0" encoding="utf-8"?>
<!-- Generator: Adobe Illustrator 16.0.0, SVG Export Plug-In . SVG Version: 6.00 Build 0)  -->
<!DOCTYPE svg PUBLIC "-//W3C//DTD SVG 1.1//EN" "http://www.w3.org/Graphics/SVG/1.1/DTD/svg11.dtd">
<svg version="1.1" id="Layer_1" xmlns="http://www.w3.org/2000/svg" xmlns:xlink="http://www.w3.org/1999/xlink" x="0px" y="0px"
	 width="24px" height="24px" viewBox="0 0 24 24" enable-background="new 0 0 24 24" xml:space="preserve">
<g>
	<g>
		<g>
			<path fill="#8ABA68" d="M15.988,21.033c-1.268,0.56-2.629,0.841-3.991,0.841c-2.53-0.001-5.05-0.962-6.979-2.891
				c-1.93-1.93-2.889-4.45-2.891-6.981c0.001-1.951,0.578-3.899,1.725-5.573l1.596,1.596l0.645-5.372L0.72,3.298l1.607,1.607
				C0.779,7.01,0,9.508,0,12.002c-0.001,3.066,1.173,6.145,3.514,8.485C5.853,22.828,8.93,24.001,11.996,24
				c1.654,0,3.308-0.341,4.85-1.021L15.988,21.033z"/>
		</g>
		<g>
			<path fill="#8ABA68" d="M24.001,11.998c0.002-3.068-1.172-6.145-3.513-8.485c-2.34-2.34-5.417-3.514-8.483-3.513
				c-1.657,0-3.314,0.341-4.858,1.023l0.859,1.945c1.27-0.562,2.633-0.843,3.999-0.843c2.529,0.002,5.048,0.961,6.978,2.891
				c1.93,1.931,2.891,4.451,2.891,6.981c0,1.951-0.576,3.898-1.724,5.574l-1.596-1.597l-0.645,5.371l5.372-0.646l-1.606-1.604
				C23.223,16.99,24.003,14.491,24.001,11.998z"/>
		</g>
		<g>
			<circle fill="#8ABA68" cx="11.963" cy="8.353" r="2.735"/>
		</g>
		<g>
			<path fill="#8ABA68" d="M14.394,11.998h-4.86c-1.672,0-3.039,0.958-3.039,2.128v2.126h10.938v-2.126
				C17.432,12.956,16.065,11.998,14.394,11.998z"/>
		</g>
	</g>
</g>
</svg>
