<?xml version="1.0" encoding="utf-8"?>
<!-- Generator: Adobe Illustrator 16.0.0, SVG Export Plug-In . SVG Version: 6.00 Build 0)  -->
<!DOCTYPE svg PUBLIC "-//W3C//DTD SVG 1.1//EN" "http://www.w3.org/Graphics/SVG/1.1/DTD/svg11.dtd">
<svg version="1.1" id="Layer_1" xmlns="http://www.w3.org/2000/svg" xmlns:xlink="http://www.w3.org/1999/xlink" x="0px" y="0px"
	 width="24px" height="24px" viewBox="0 0 24 24" enable-background="new 0 0 24 24" xml:space="preserve">
<g>
	<g>
		<g>
			<ellipse fill="#8ABA68" cx="11.367" cy="19.348" rx="2.074" ry="2.03"/>
		</g>
		<g>
			<ellipse fill="#8ABA68" cx="17.808" cy="19.348" rx="2.079" ry="2.03"/>
		</g>
		<g>
			<g>
				<path fill="#8ABA68" d="M21.887,5.3H7.508c-0.035,0-0.067,0.009-0.1,0.009L7.042,3.48C6.975,2.997,6.644,2.708,6.02,2.622H0.775
					C-0.421,2.627-0.457,5.571,2.28,5.191l2.642-0.022l0.471,2.197v0.007l1.424,7.039c0,1.14,0.953,2.074,2.113,2.074h11.532
					c1.162,0,2.115-0.935,2.115-2.074L24,7.372C24,6.232,23.051,5.3,21.887,5.3z M9.529,14.417l-0.047,0.006
					c-0.389,0.047-0.753-0.222-0.803-0.591L7.863,8.286c-0.057-0.381,0.23-0.732,0.633-0.78l0.047-0.003
					c0.387-0.047,0.752,0.221,0.805,0.59l0.814,5.546C10.221,14.02,9.934,14.371,9.529,14.417z M13.214,14.435l-0.053,0.006
					c-0.393,0.029-0.744-0.257-0.774-0.632l-0.462-5.576c-0.03-0.378,0.274-0.716,0.674-0.74l0.053-0.004
					c0.393-0.029,0.744,0.259,0.772,0.634l0.464,5.575C13.923,14.077,13.617,14.411,13.214,14.435z M17.485,13.77
					c-0.006,0.379-0.339,0.683-0.738,0.68h-0.048c-0.398-0.003-0.725-0.319-0.72-0.7l0.094-5.587c0.006-0.377,0.34-0.683,0.738-0.68
					h0.052c0.398,0.006,0.722,0.319,0.716,0.7L17.485,13.77z M21.738,8.313l-0.953,5.526c-0.06,0.366-0.43,0.624-0.821,0.571
					l-0.047-0.006c-0.403-0.052-0.68-0.409-0.614-0.791l0.948-5.525c0.061-0.366,0.433-0.625,0.82-0.573l0.047,0.004
					C21.527,7.577,21.804,7.935,21.738,8.313z"/>
			</g>
		</g>
	</g>
</g>
</svg>
