<?xml version="1.0" encoding="utf-8"?>
<!-- Generator: Adobe Illustrator 16.0.0, SVG Export Plug-In . SVG Version: 6.00 Build 0)  -->
<!DOCTYPE svg PUBLIC "-//W3C//DTD SVG 1.1//EN" "http://www.w3.org/Graphics/SVG/1.1/DTD/svg11.dtd">
<svg version="1.1" id="Layer_1" xmlns="http://www.w3.org/2000/svg" xmlns:xlink="http://www.w3.org/1999/xlink" x="0px" y="0px"
	 width="24px" height="24px" viewBox="0 0 24 24" enable-background="new 0 0 24 24" xml:space="preserve">
<g>
	<g>
		<g>
			<path fill="#8ABA68" d="M21.691,3.169L21.691,3.169L21.691,3.169L21.691,3.169L21.691,3.169c-1.29-2.062-3.603-3.156-6.087-3.149
				V0.014L15.297,0c-0.161,0.017-0.27,0.146-0.287,0.312L14.93,1.34c-0.006,0.095,0.008,0.187,0.073,0.255
				c0.048,0.052,0.088,0.083,0.152,0.098l0.256,0.013l0.006-0.001c2.003-0.07,3.86,0.734,4.867,2.344
				c1.005,1.612,0.911,3.635-0.029,5.401l-0.003,0.004L20.15,9.689c-0.018,0.066-0.007,0.117,0.02,0.183
				c0.033,0.088,0.109,0.14,0.196,0.176l0.962,0.378c0.154,0.059,0.318,0.018,0.406-0.119l0.121-0.282l-0.006-0.002
				C22.944,7.792,22.979,5.233,21.691,3.169z"/>
		</g>
		<g>
			<path fill="#8ABA68" d="M18.732,5.019L18.732,5.019L18.732,5.019H18.73l0,0c-0.765-1.218-2.125-1.864-3.583-1.858l0,0
				l-0.299-0.013c-0.152,0.016-0.259,0.14-0.273,0.298l-0.077,0.988c-0.007,0.093,0.008,0.179,0.069,0.246
				c0.046,0.052,0.087,0.082,0.149,0.094l0.217,0.013c0.009,0.001,0.017,0.001,0.031,0.001c0.984-0.071,1.911,0.306,2.397,1.084
				c0.485,0.779,0.416,1.774-0.079,2.631c-0.005,0.01-0.01,0.021-0.012,0.029l-0.082,0.199c-0.018,0.063-0.012,0.111,0.015,0.176
				c0.034,0.085,0.106,0.133,0.193,0.168l0.921,0.365c0.148,0.057,0.309,0.014,0.392-0.114l0.116-0.274l0,0
				C19.47,7.748,19.487,6.238,18.732,5.019z"/>
		</g>
		<g>
			<g>
				<path fill="#8ABA68" d="M14.122,9.24c0.639,0.199,1.362,0.054,1.868-0.453c0.728-0.728,0.728-1.905,0-2.633
					c-0.729-0.728-1.905-0.728-2.633,0c-0.51,0.508-0.652,1.233-0.453,1.875l-1.622,1.286C7.855,6.17,4.238,4.684,2.941,5.979
					C2.688,6.228,2.636,6.294,2.409,6.614c-1.414,1.979-0.66,5.38,1.292,8.439c0.18,0.277,0.37,0.545,0.572,0.806
					c-1.091,2.681-2.897,7.12-2.897,7.12c-0.131,0.383,0.058,0.809,0.439,0.963c0.381,0.156,0.812-0.019,0.986-0.382
					c0,0,1.525-3.747,2.622-6.437c0.612,0.587,1.301,1.119,2.049,1.604c0.964,2.364,1.971,4.833,1.971,4.833
					c0.173,0.363,0.606,0.538,0.983,0.382c0.383-0.154,0.572-0.58,0.437-0.963c0,0-0.563-1.39-1.249-3.087
					c2.451,1.049,4.882,0.873,6.312-0.553l0.188-0.191c1.286-1.286-0.175-4.868-3.279-8.279L14.122,9.24z M15.044,18.08
					c-0.857,0.858-4.024-0.917-7.073-3.963c-3.044-3.049-4.818-6.213-3.959-7.071c0.773-0.777,3.435,0.602,6.187,3.124l-1.865,1.473
					c-0.321,0.322-0.095,1.069,0.505,1.667l0.002,0.004c0.596,0.596,1.342,0.821,1.666,0.502l1.472-1.863
					C14.463,14.684,15.813,17.309,15.044,18.08z"/>
			</g>
		</g>
	</g>
</g>
</svg>
