<?xml version="1.0" encoding="utf-8"?>
<!-- Generator: Adobe Illustrator 16.0.0, SVG Export Plug-In . SVG Version: 6.00 Build 0)  -->
<!DOCTYPE svg PUBLIC "-//W3C//DTD SVG 1.1//EN" "http://www.w3.org/Graphics/SVG/1.1/DTD/svg11.dtd">
<svg version="1.1" id="Layer_1" xmlns="http://www.w3.org/2000/svg" xmlns:xlink="http://www.w3.org/1999/xlink" x="0px" y="0px"
	 width="24px" height="24px" viewBox="0 0 24 24" enable-background="new 0 0 24 24" xml:space="preserve">
<path fill="#8ABA68" d="M1.666,13.96h0.618l1.619,7.468c0.32,1.498,1.642,2.571,3.174,2.572h9.845
	c1.533,0.003,2.859-1.063,3.185-2.561l1.608-7.479h0.618c0.918,0,1.665-0.745,1.667-1.666v-2.115c0-0.922-0.748-1.669-1.667-1.669
	h-2.887l-2.955-6.199c0.329-0.886-0.123-1.874-1.011-2.203c-0.889-0.329-1.875,0.125-2.204,1.013
	c-0.318,0.856,0.092,1.811,0.931,2.171l2.524,5.207H7.27l2.526-5.195c0.869-0.373,1.274-1.38,0.9-2.25
	c-0.373-0.87-1.381-1.274-2.251-0.901c-0.84,0.361-1.25,1.314-0.933,2.171L4.551,8.51H1.666c-0.919,0-1.667,0.748-1.667,1.669l0,0
	v2.117C0.002,13.216,0.748,13.96,1.666,13.96z M18.367,10.169c0.591,0,1.068,0.479,1.068,1.068s-0.477,1.067-1.068,1.067
	c-0.589,0-1.068-0.479-1.068-1.067S17.777,10.169,18.367,10.169L18.367,10.169z M16.973,13.96h2.158l-1.497,6.942
	c-0.076,0.333-0.371,0.569-0.712,0.571h-0.719L16.973,13.96z M12.882,13.96h2.318l-0.776,7.512H12.88L12.882,13.96z M11.118,13.96
	v7.512H9.575L8.801,13.96H11.118z M7.796,21.472h-0.72c-0.34-0.002-0.634-0.238-0.711-0.569L4.865,13.96h2.157L7.796,21.472z
	 M5.633,10.169c0.588,0,1.067,0.479,1.067,1.068s-0.479,1.067-1.067,1.067c-0.591,0-1.068-0.479-1.068-1.067
	S5.042,10.169,5.633,10.169L5.633,10.169z"/>
</svg>
