<?xml version="1.0" encoding="utf-8"?>
<!-- Generator: Adobe Illustrator 16.0.0, SVG Export Plug-In . SVG Version: 6.00 Build 0)  -->
<!DOCTYPE svg PUBLIC "-//W3C//DTD SVG 1.1//EN" "http://www.w3.org/Graphics/SVG/1.1/DTD/svg11.dtd">
<svg version="1.1" id="Layer_1" xmlns="http://www.w3.org/2000/svg" xmlns:xlink="http://www.w3.org/1999/xlink" x="0px" y="0px"
	 width="24px" height="24px" viewBox="0 0 24 24" enable-background="new 0 0 24 24" xml:space="preserve">
<g>
	<g>
		<g>
			<path fill="#8ABA68" d="M16.527,20.099c0.618,1.407-0.021,3.049-1.43,3.665c-1.407,0.62-3.047-0.021-3.666-1.433
				c-0.165-0.375-0.234-0.766-0.228-1.152l4.629-2.029C16.119,19.404,16.362,19.724,16.527,20.099z"/>
		</g>
		<g>
			<path fill="#8ABA68" d="M2.233,12.745C0.93,9.458,1.592,6.326,3.544,4.278C3.464,4.154,3.382,4.04,3.321,3.897
				c-0.616-1.406,0.023-3.046,1.43-3.66C6.158-0.384,7.799,0.26,8.419,1.666c0.058,0.132,0.088,0.271,0.124,0.408
				c2.924-0.058,5.813,1.723,7.32,4.752c0,0,2.236,5.131,4.691,5.54c0.075,0.005,1.392,0.037,1.792,0.998
				c0.38,0.905-0.4,2.12-1.757,2.704l-14.687,6.33c-1.352,0.584-2.85,0.352-3.17-0.581c-0.315-0.918,0.379-1.765,0.443-1.842
				C4.563,17.848,2.233,12.745,2.233,12.745z"/>
		</g>
	</g>
</g>
</svg>
