<?xml version="1.0" encoding="utf-8"?>
<!-- Generator: Adobe Illustrator 16.0.0, SVG Export Plug-In . SVG Version: 6.00 Build 0)  -->
<!DOCTYPE svg PUBLIC "-//W3C//DTD SVG 1.1//EN" "http://www.w3.org/Graphics/SVG/1.1/DTD/svg11.dtd">
<svg version="1.1" id="Layer_1" xmlns="http://www.w3.org/2000/svg" xmlns:xlink="http://www.w3.org/1999/xlink" x="0px" y="0px"
	 width="24px" height="24px" viewBox="0 0 24 24" enable-background="new 0 0 24 24" xml:space="preserve">
<g>
	<g>
		<g>
			<g>
				<path fill="#8ABA68" d="M17.344,5.77c-0.234-0.57-0.565-1.084-0.993-1.537c-0.428-0.447-0.922-0.805-1.482-1.068
					c-0.575-0.271-1.182-0.424-1.818-0.459c-0.092-0.01-0.182-0.016-0.268-0.016c-0.006,0-0.011,0-0.016,0
					c-0.106,0.006-0.188,0.008-0.244,0.008c-0.646,0.035-1.261,0.188-1.842,0.459C10.12,3.42,9.626,3.778,9.199,4.227
					C8.766,4.68,8.435,5.194,8.206,5.77V5.762C7.961,6.358,7.839,6.983,7.839,7.635C7.833,8.311,8.015,9.006,8.381,9.721
					c0.188,0.371,0.425,0.738,0.71,1.1c0.159,0.197,0.329,0.396,0.513,0.596c0.011,0.006,0.019,0.014,0.022,0.023
					c0.174,0.162,0.293,0.32,0.359,0.473c0.035,0.078,0.058,0.172,0.069,0.285c0.015,0.121,0.022,0.27,0.022,0.441v0.344
					c0,0.204,0.038,0.401,0.115,0.59c0.076,0.178,0.184,0.336,0.32,0.473h0.008c0.137,0.137,0.293,0.246,0.467,0.32h0.008
					c0.183,0.082,0.377,0.123,0.58,0.123h2.393c0.203,0,0.396-0.041,0.58-0.123c0.179-0.074,0.336-0.184,0.474-0.32
					s0.244-0.295,0.321-0.473c0.082-0.189,0.123-0.387,0.123-0.59v-0.344c0-0.172,0.007-0.32,0.022-0.441
					c0.009-0.113,0.03-0.211,0.061-0.291c0.036-0.076,0.087-0.156,0.153-0.238v-0.008c0.062-0.076,0.132-0.152,0.213-0.229
					c0.006-0.006,0.012-0.01,0.016-0.016c0.189-0.199,0.363-0.396,0.521-0.596c0.284-0.361,0.522-0.729,0.71-1.1
					c0.367-0.715,0.548-1.41,0.543-2.086C17.703,6.987,17.583,6.366,17.344,5.77z M24,11.348c0,2.256-0.576,4.274-1.728,6.051
					c-0.454,0.703-0.995,1.369-1.627,1.996c-2.217,2.23-4.896,3.346-8.039,3.346c-2.119,0-4.034-0.506-5.746-1.521
					c-0.082,0.098-0.184,0.174-0.307,0.23l-5.295,2.514c-0.168,0.076-0.344,0.1-0.527,0.068s-0.342-0.111-0.474-0.244
					c-0.133-0.133-0.214-0.291-0.245-0.475c-0.03-0.184-0.007-0.357,0.068-0.525l2.515-5.342c0.047-0.102,0.11-0.188,0.192-0.26
					c-1.051-1.727-1.575-3.672-1.575-5.838c0-3.158,1.108-5.846,3.324-8.063C4.71,3.112,4.889,2.944,5.073,2.782
					c0.724-0.643,1.489-1.173,2.3-1.59c1.579-0.825,3.324-1.237,5.234-1.237c3.143,0,5.822,1.11,8.039,3.331
					c2.109,2.094,3.225,4.605,3.347,7.535C23.997,10.995,24,11.17,24,11.348z M14.021,5.479c-0.234-0.105-0.479-0.168-0.734-0.184
					c-0.157-0.01-0.288-0.074-0.39-0.191c-0.103-0.111-0.149-0.246-0.146-0.404c0.011-0.152,0.074-0.279,0.191-0.383
					c0.117-0.102,0.253-0.15,0.406-0.145c0.401,0.025,0.785,0.125,1.152,0.299c0.352,0.162,0.663,0.387,0.934,0.672
					c0.265,0.285,0.471,0.609,0.618,0.971c0.152,0.371,0.229,0.762,0.229,1.17c0,0.152-0.057,0.285-0.168,0.396
					c-0.107,0.107-0.238,0.16-0.391,0.16c-0.157,0-0.289-0.053-0.397-0.16c-0.112-0.111-0.168-0.244-0.168-0.396
					c0-0.262-0.048-0.51-0.146-0.75c-0.091-0.229-0.224-0.436-0.397-0.619C14.442,5.731,14.243,5.586,14.021,5.479z M16.122,8.795
					c0,0.168-0.063,0.313-0.185,0.436c-0.116,0.117-0.263,0.176-0.436,0.176c-0.168,0-0.31-0.059-0.427-0.176
					c-0.123-0.123-0.185-0.268-0.185-0.436s0.062-0.313,0.185-0.436c0.117-0.117,0.259-0.176,0.427-0.176
					c0.173,0,0.319,0.059,0.436,0.176C16.06,8.483,16.122,8.627,16.122,8.795z M14.188,15.146h-2.79
					c-0.233,0-0.433,0.084-0.596,0.254c-0.169,0.162-0.253,0.357-0.253,0.588c0,0.234,0.082,0.432,0.245,0.596l0.008,0.008
					c0.163,0.162,0.362,0.244,0.596,0.244h2.79c0.234,0,0.432-0.082,0.596-0.244c0.162-0.168,0.244-0.371,0.244-0.604
					c0-0.23-0.082-0.426-0.244-0.59v-0.006C14.615,15.228,14.417,15.146,14.188,15.146z M11.177,17.683h-0.008
					c-0.163,0.162-0.244,0.361-0.244,0.596s0.084,0.434,0.253,0.596c0.163,0.164,0.361,0.244,0.596,0.244h2.01
					c0.229,0,0.425-0.08,0.589-0.244h0.007c0.163-0.162,0.245-0.361,0.245-0.596s-0.082-0.434-0.245-0.596
					c-0.168-0.168-0.366-0.252-0.596-0.252h-2.01C11.539,17.431,11.341,17.515,11.177,17.683z"/>
			</g>
		</g>
	</g>
</g>
</svg>
