<?xml version="1.0" encoding="utf-8"?>
<!-- Generator: Adobe Illustrator 16.0.0, SVG Export Plug-In . SVG Version: 6.00 Build 0)  -->
<!DOCTYPE svg PUBLIC "-//W3C//DTD SVG 1.1//EN" "http://www.w3.org/Graphics/SVG/1.1/DTD/svg11.dtd">
<svg version="1.1" id="Layer_1" xmlns="http://www.w3.org/2000/svg" xmlns:xlink="http://www.w3.org/1999/xlink" x="0px" y="0px"
	 width="24px" height="24px" viewBox="0 0 24 24" enable-background="new 0 0 24 24" xml:space="preserve">
<g transform="translate(-30 -260)">
	<g>
		<g>
			<g>
				<path fill="#8ABA68" d="M46.498,275.425l-12.661-14.718L30,264.011l1.1,1.28l2.56-2.203l8.05,9.364l0.01,3.356
					c0.558-0.116,1.132-0.116,1.688-0.004l-0.003-1.388l2.92,3.389L54,271.2l-1.102-1.279L46.498,275.425z"/>
			</g>
			<g>
				<g>
					<path fill="#8ABA68" d="M40.371,277.355c-1.413,1.219-1.575,3.352-0.358,4.762c1.212,1.417,3.346,1.576,4.763,0.361
						c1.408-1.214,1.572-3.346,0.354-4.761C43.91,276.301,41.777,276.142,40.371,277.355z M43.672,281.199
						c-0.707,0.608-1.776,0.526-2.385-0.181c-0.607-0.709-0.523-1.771,0.186-2.378c0.703-0.605,1.769-0.534,2.375,0.177
						C44.455,279.523,44.379,280.59,43.672,281.199z"/>
				</g>
			</g>
			<g>
				
					<rect x="43.564" y="266.1" transform="matrix(-0.7586 0.6516 -0.6516 -0.7586 258.1337 443.3099)" fill="#8ABA68" width="6.753" height="6.752"/>
			</g>
			<g>
				<polygon fill="#8ABA68" points="38.871,265.27 42.068,262.518 44.824,265.719 41.621,268.47 				"/>
			</g>
		</g>
	</g>
</g>
</svg>
