<?xml version="1.0" encoding="utf-8"?>
<!-- Generator: Adobe Illustrator 16.0.0, SVG Export Plug-In . SVG Version: 6.00 Build 0)  -->
<!DOCTYPE svg PUBLIC "-//W3C//DTD SVG 1.1//EN" "http://www.w3.org/Graphics/SVG/1.1/DTD/svg11.dtd">
<svg version="1.1" id="Layer_1" xmlns="http://www.w3.org/2000/svg" xmlns:xlink="http://www.w3.org/1999/xlink" x="0px" y="0px"
	 width="24px" height="24px" viewBox="0 0 24 24" enable-background="new 0 0 24 24" xml:space="preserve">
<g>
	<path fill="#8ABA68" d="M23.485,18.529L23.485,18.529c0-0.001,0-0.003,0-0.003c-0.017-0.049-0.035-0.101-0.062-0.151
		c-0.415-1.108-0.753-2.693-0.96-4.548c-0.132-1.29-0.154-2.767-0.173-4.339c-0.023-1.734,0.032-3.352,0.155-4.729
		c-0.097-0.055-0.19-0.081-0.29-0.081c-1.006,0.004-1.787,2.932-1.74,6.537c0.008,0.452,0.026,0.893,0.058,1.318
		c0.501,0.145,0.84,0.429,0.847,0.759l0.004,0.348c0.003,0.002,0.006,0.002,0.007,0.002c-0.154,1.94-0.457,3.601-0.858,4.752
		c-0.026,0.049-0.042,0.102-0.057,0.154h-0.001h0.001c-0.004,0.043-0.012,0.08-0.011,0.118c0.007,0.503,0.704,0.904,1.558,0.897
		c0.854-0.005,1.546-0.413,1.537-0.914C23.5,18.61,23.491,18.571,23.485,18.529z"/>
	<path fill="#8ABA68" d="M3.885,8.085L3.698,5.569V4.835c0-0.14-0.117-0.253-0.26-0.253c-0.142,0-0.259,0.113-0.259,0.253v3.187
		c-0.042,0.07-0.114,0.12-0.203,0.12C2.838,8.146,2.724,8.037,2.72,7.897L2.681,6.198V4.835c0-0.14-0.117-0.253-0.258-0.253
		c-0.145,0-0.258,0.113-0.258,0.253V8.05C2.121,8.117,2.047,8.164,1.962,8.166C1.824,8.169,1.707,8.062,1.706,7.92L1.627,6.085
		v-1.25c0-0.14-0.116-0.253-0.259-0.253c-0.145,0-0.259,0.113-0.259,0.253v0.389l-0.35,2.861c-0.013,0.538,0.42,0.988,1.097,1.119
		c-0.141,3.688-0.628,6.911-1.275,8.887c-0.029,0.058-0.047,0.12-0.062,0.182c0,0.001-0.002,0.003-0.002,0.005
		c-0.009,0.046-0.014,0.091-0.016,0.137c-0.014,0.597,0.666,1.077,1.521,1.077c0.855,0,1.56-0.482,1.575-1.078
		c0-0.045-0.003-0.092-0.012-0.138c0-0.002-0.001-0.003-0.001-0.007c-0.01-0.059-0.027-0.124-0.051-0.179
		c-0.554-1.977-0.885-5.198-0.854-8.888C3.36,9.073,3.873,8.624,3.885,8.085z"/>
	<path fill="none" stroke="#6DA942" stroke-miterlimit="10" d="M4.671,3.138C6.659,1.491,9.214,0.5,11.999,0.5
		c2.668,0,5.127,0.909,7.078,2.433"/>
	<path fill="none" stroke="#6DA942" stroke-miterlimit="10" d="M18.896,21.199c-1.92,1.444-4.309,2.301-6.897,2.301
		c-2.712,0-5.203-0.936-7.169-2.503"/>
	<path fill="#8ABA68" d="M6.727,21.789c0,0.848-0.688,1.535-1.534,1.535c-0.848,0-1.533-0.688-1.533-1.535
		c0-0.843,0.685-1.533,1.533-1.533C6.039,20.256,6.727,20.946,6.727,21.789z"/>
	<path fill="none" stroke="#6DA942" stroke-miterlimit="10" d="M17.748,11.824c0,3.127-2.533,5.654-5.654,5.654
		c-3.125,0-5.657-2.527-5.657-5.654c0-3.121,2.532-5.658,5.657-5.658C15.215,6.167,17.748,8.703,17.748,11.824z"/>
	<path fill="#8ABA68" d="M16.309,11.824c0,2.329-1.891,4.215-4.215,4.215c-2.331,0-4.218-1.886-4.218-4.215
		c0-2.328,1.887-4.218,4.218-4.218C14.418,7.606,16.309,9.497,16.309,11.824z"/>
	<circle fill="#8ABA68" cx="5.193" cy="2.624" r="1.533"/>
	<path fill="#8ABA68" d="M19.762,2.624c0,0.846-0.691,1.532-1.534,1.532c-0.847,0-1.535-0.686-1.535-1.532
		c0-0.846,0.688-1.535,1.535-1.535C19.07,1.088,19.762,1.777,19.762,2.624z"/>
	<path fill="#8ABA68" d="M19.762,21.789c0,0.848-0.691,1.535-1.534,1.535c-0.847,0-1.535-0.688-1.535-1.535
		c0-0.843,0.688-1.533,1.535-1.533C19.07,20.256,19.762,20.946,19.762,21.789z"/>
</g>
</svg>
